<?xml version="1.0" encoding="UTF-8" standalone="no"?>
<!-- Created with Inkscape (http://www.inkscape.org/) -->

<svg
   width="23.597534mm"
   height="28.868196mm"
   viewBox="0 0 23.597534 28.868197"
   version="1.1"
   id="svg1"
   inkscape:version="1.4.3 (0d15f75, 2025-12-25)"
   sodipodi:docname="logo.svg"
   xmlns:inkscape="http://www.inkscape.org/namespaces/inkscape"
   xmlns:sodipodi="http://sodipodi.sourceforge.net/DTD/sodipodi-0.dtd"
   xmlns="http://www.w3.org/2000/svg"
   xmlns:svg="http://www.w3.org/2000/svg">
  <sodipodi:namedview
     id="namedview1"
     pagecolor="#ffffff"
     bordercolor="#000000"
     borderopacity="0.25"
     inkscape:showpageshadow="2"
     inkscape:pageopacity="0.0"
     inkscape:pagecheckerboard="0"
     inkscape:deskcolor="#d1d1d1"
     inkscape:document-units="mm"
     inkscape:zoom="4.0668164"
     inkscape:cx="11.434005"
     inkscape:cy="68.481085"
     inkscape:window-width="1920"
     inkscape:window-height="1009"
     inkscape:window-x="-8"
     inkscape:window-y="-8"
     inkscape:window-maximized="1"
     inkscape:current-layer="layer1" />
  <defs
     id="defs1">
    <clipPath
       clipPathUnits="userSpaceOnUse"
       id="clipPath11">
      <ellipse
         style="fill:#703f20;fill-opacity:1;stroke:none;stroke-width:1.365;stroke-dasharray:none;stroke-opacity:1"
         id="ellipse12"
         cx="87.637085"
         cy="98.58596"
         rx="10.718866"
         ry="13.939126"
         clip-path="none" />
    </clipPath>
    <clipPath
       clipPathUnits="userSpaceOnUse"
       id="clipPath14">
      <ellipse
         style="fill:#603015;fill-opacity:1;stroke:none;stroke-width:1.365;stroke-dasharray:none;stroke-opacity:1"
         id="ellipse15"
         cx="109.25883"
         cy="104.65845"
         rx="10.718866"
         ry="13.939126"
         clip-path="none" />
    </clipPath>
    <clipPath
       clipPathUnits="userSpaceOnUse"
       id="clipPath2">
      <ellipse
         style="fill:#703f20;fill-opacity:1;stroke:none;stroke-width:1.365;stroke-dasharray:none;stroke-opacity:1"
         id="ellipse3"
         cx="118.28516"
         cy="89.538971"
         rx="10.718866"
         ry="13.939126"
         clip-path="none"
         transform="rotate(17.386608)" />
    </clipPath>
  </defs>
  <g
     inkscape:label="Слой 1"
     inkscape:groupmode="layer"
     id="layer1"
     transform="translate(-74.32613,-106.35956)">
    <ellipse
       style="fill:#703f20;fill-opacity:1;stroke:none;stroke-width:1.5;stroke-dasharray:none;stroke-opacity:1"
       id="path9"
       cx="118.28516"
       cy="89.538971"
       rx="10.718865"
       ry="13.939126"
       clip-path="none"
       transform="rotate(17.386608)" />
    <path
       style="fill:#461f15;stroke-width:1.365"
       id="path2"
       d="m 90.06555,104.42891 c -0.03146,0.0164 -0.06409,0.0306 -0.09439,0.049 -0.08734,0.0531 -0.170429,0.11307 -0.258249,0.16539 -0.139869,0.0833 -0.284417,0.1586 -0.424596,0.24141 -0.37539,0.22174 -0.866775,0.52496 -1.21536,0.77195 -0.243663,0.17265 -0.476769,0.35974 -0.715153,0.53961 -0.243515,0.23174 -0.499536,0.451 -0.730547,0.69521 -1.060405,1.12096 -1.958359,2.49482 -2.574122,3.90831 -0.150326,0.34507 -0.268341,0.70334 -0.402511,1.05501 -0.20825,0.8533 -0.316795,1.10898 -0.355459,1.97364 -0.02616,0.58509 0.03183,1.11698 0.152559,1.68729 0.131697,0.62212 0.23357,0.82481 0.456212,1.4149 0.393689,0.99689 0.963665,1.91045 1.390875,2.8915 0.07155,0.1643 0.133679,0.33254 0.200519,0.49881 0.202306,0.53673 0.359138,1.10967 0.256495,1.68674 -0.07189,0.40416 -0.120163,0.43861 -0.299041,0.82336 -0.523517,1.00826 -1.102286,2.03235 -1.85873,2.88639 -0.404676,0.45688 -1.373089,1.32593 -1.817739,1.73481 -0.855751,0.6837 -1.721526,1.36547 -2.498762,2.1402 -0.219472,0.21876 -0.435313,0.4423 -0.632107,0.68167 -0.497527,0.60517 -0.552378,0.78206 -0.920052,1.45986 -0.317483,0.73922 -0.52651,1.51854 -0.624415,2.31699 -0.04913,0.40062 -0.07904,0.94958 -0.02647,1.35587 0.02727,0.21072 0.09273,0.4147 0.139099,0.62206 0.158041,0.43654 0.176373,0.58762 0.448579,0.96104 0.142493,0.19549 0.426277,0.48052 0.643336,0.60651 1.646003,0.95538 3.310825,1.87797 4.966238,2.81695 0,0 -4.263929,-3.39046 -4.263929,-3.39046 v 0 c 1.430512,0.83459 2.868402,1.65666 4.291535,2.50377 0.132128,0.0787 -0.283227,-0.12145 -0.416909,-0.19743 -0.512049,-0.29102 -0.791886,-0.60943 -1.07416,-1.12556 -0.07188,-0.18671 -0.160888,-0.36769 -0.215623,-0.56013 -0.254956,-0.89634 -0.198378,-1.9117 0.04075,-2.80359 0.06732,-0.2511 0.164959,-0.49307 0.247439,-0.7396 0.110028,-0.24035 0.205937,-0.48768 0.330084,-0.72105 0.130007,-0.24439 0.278095,-0.4791 0.431085,-0.70979 0.745238,-1.12375 1.702093,-2.0819 2.62868,-3.05321 0.403122,-0.36299 1.493737,-1.35317 1.912279,-1.69743 0.325975,-0.26812 0.671888,-0.51115 1.002284,-0.77381 0.650362,-0.51702 1.298117,-1.04813 1.817135,-1.70259 0.155085,-0.25124 0.428876,-0.65534 0.513061,-0.94665 0.04424,-0.15306 0.05137,-0.316 0.05031,-0.47533 -0.0036,-0.53892 -0.219972,-1.04059 -0.383447,-1.54326 -0.229251,-0.51754 -0.253714,-0.59243 -0.515998,-1.10303 -0.415468,-0.80881 -0.910104,-1.57376 -1.310548,-2.39061 -0.151532,-0.33754 -0.478912,-1.04889 -0.600048,-1.39278 -0.294648,-0.83647 -0.457753,-1.72903 -0.417314,-2.61851 0.01553,-0.34155 0.08184,-0.6789 0.122756,-1.01835 0.100727,-0.35046 0.174431,-0.70984 0.302178,-1.05138 0.402793,-1.0769 1.045255,-2.07344 1.853252,-2.89028 0.6256,-0.63244 0.944264,-0.8032 1.66007,-1.2936 0.269709,-0.14156 0.531649,-0.29903 0.80912,-0.4247 0.649049,-0.29395 1.376773,-0.51638 2.097516,-0.49709 0.183885,0.005 0.476782,0.0726 0.67682,0.11539 z"
       clip-path="url(#clipPath2)" />
  </g>
</svg>
